<svg id="Layer_1" data-name="Layer 1" xmlns="http://www.w3.org/2000/svg" viewBox="0 0 64 64"><defs><style>.cls-1{fill:#d9ebf4;}.cls-2{fill:#c6e2f4;}.cls-3,.cls-35{fill:none;stroke-linecap:round;}.cls-3{stroke:#041256;stroke-linejoin:round;stroke-width:2px;}.cls-4{fill:#76aedd;}.cls-5{fill:#88c3ea;}.cls-6{fill:#a0d5f2;}.cls-7{fill:#c9d3c5;}.cls-8{fill:#e1e8dd;}.cls-9{fill:#ed4300;}.cls-10{fill:#c5cad8;}.cls-11{fill:#d9f3ff;}.cls-12{fill:#555f93;}.cls-13{fill:#4a5084;}.cls-14{fill:#737ead;}.cls-15{fill:#172968;}.cls-16{fill:#233977;}.cls-17{fill:#50d190;}.cls-18{fill:#3bb790;}.cls-19{fill:#7df4b3;}.cls-20{fill:#112356;}.cls-21{fill:#3e5e96;}.cls-22{fill:#d3425e;}.cls-23{fill:#f98e0d;}.cls-24{fill:#d9e7f4;}.cls-25{fill:#cee3f2;}.cls-26{fill:#bdd9ef;}.cls-27{fill:#b0d4ed;}.cls-28{fill:#e8f2f9;}.cls-29{fill:#fdfeff;}.cls-30{fill:#a1c9e5;}.cls-31{fill:#88bad8;}.cls-32{fill:#8455ce;}.cls-33{fill:#af8056;}.cls-34{fill:#9e724d;}.cls-35{stroke:#a1c9e5;stroke-miterlimit:10;}.cls-36{fill:#b09ce2;}.cls-37{fill:#597d99;}.cls-38{fill:#5fddd1;}.cls-39{fill:#4d6e84;}.cls-40{fill:#61c4db;}.cls-41{fill:#84a5bc;}.cls-42{fill:#97bdd1;}.cls-43{fill:#92efe4;}.cls-44{fill:#7297b2;}.cls-45{fill:#d0e0ef;}.cls-46{fill:#eaf3f9;}.cls-47{fill:#fff;}.cls-48{fill:#bad3e8;}.cls-49{fill:#a2c4db;}.cls-50{fill:#ffa022;}.cls-51{fill:#fcc947;}.cls-52{fill:#fb3;}</style></defs><title>receipt, finance, payment, ecommerce, commerce</title><path class="cls-1" d="M11.7,17h2.43a.76.76,0,0,0,0-1.52H12.92a.46.46,0,0,1-.46-.46.46.46,0,0,0-.46-.46H9.58a.76.76,0,1,0,0,1.52h1.21a.46.46,0,0,1,.46.46A.46.46,0,0,0,11.7,17Z"/><path class="cls-1" d="M9.74,18.19H8.33a.26.26,0,0,0-.26.26.26.26,0,0,1-.26.26h-.7a.44.44,0,0,0,0,.88H8.5a.26.26,0,0,0,.26-.26A.26.26,0,0,1,9,19.08h.7a.44.44,0,0,0,0-.88Z"/><path class="cls-1" d="M14.45,10.5H13a.26.26,0,0,0-.26.26.26.26,0,0,1-.26.26h-.7a.44.44,0,1,0,0,.88h1.41a.26.26,0,0,0,.26-.26.26.26,0,0,1,.26-.26h.7a.44.44,0,1,0,0-.88Z"/><circle class="cls-1" cx="11.85" cy="25.1" r="0.63"/><circle class="cls-1" cx="11.86" cy="20.05" r="0.61"/><circle class="cls-1" cx="14.89" cy="21.3" r="0.98"/><circle class="cls-1" cx="15.48" cy="13.69" r="0.32"/><circle class="cls-1" cx="5.49" cy="21.3" r="0.39"/><circle class="cls-1" cx="8.42" cy="22.51" r="1.02"/><circle class="cls-1" cx="4.45" cy="18.55" r="0.35"/><path class="cls-1" d="M51.9,41.56h0a.5.5,0,0,1,.5-.5h2.67a.83.83,0,0,1,.83.83h0a.83.83,0,0,1-.83.83H53.73a.5.5,0,0,0-.5.5h0a.5.5,0,0,1-.5.5H50.06a.83.83,0,0,1-.83-.83h0a.83.83,0,0,1,.83-.83h1.34A.5.5,0,0,0,51.9,41.56Z"/><path class="cls-1" d="M56.73,45.32h0a.29.29,0,0,0-.29-.29H54.89a.48.48,0,0,0-.48.48h0a.48.48,0,0,0,.48.48h.77a.29.29,0,0,1,.29.29h0a.29.29,0,0,0,.29.29h1.55a.48.48,0,0,0,.48-.48h0a.48.48,0,0,0-.48-.48H57A.29.29,0,0,1,56.73,45.32Z"/><circle class="cls-1" cx="53.43" cy="53.23" r="0.7"/><circle class="cls-1" cx="52.56" cy="47.08" r="0.67"/><circle class="cls-1" cx="49.23" cy="48.45" r="1.08"/><circle class="cls-1" cx="48.57" cy="40.08" r="0.35"/><circle class="cls-1" cx="59.56" cy="48.45" r="0.43"/><circle class="cls-1" cx="56.34" cy="49.78" r="1.12"/><circle class="cls-1" cx="60.7" cy="45.42" r="0.39"/><path class="cls-2" d="M3,61V33.72a.89.89,0,0,1,.89-.89h.93a.89.89,0,0,1,.89.89V36a.89.89,0,0,0,.89.89h3a.89.89,0,0,1,.89.89V48.15a.89.89,0,0,0,.89.89h1.85a.89.89,0,0,1,.89.89v6.54a.89.89,0,0,0,.89.89h.9a.89.89,0,0,0,.89-.89V55.33a.89.89,0,0,1,.89-.89h.81a.89.89,0,0,0,.89-.89V52a.89.89,0,0,1,.89-.89H25a.89.89,0,0,0,.89-.89v-.91a.89.89,0,0,1,.89-.89H42.2a.89.89,0,0,1,.63.26L47,52.83a.89.89,0,0,0,.63.26h1.24a.89.89,0,0,1,.89.89v3a.89.89,0,0,0,.89.89h.51A.89.89,0,0,0,52,57v-.52a.89.89,0,0,1,.89-.89h.65a.89.89,0,0,0,.89-.89.89.89,0,0,1,.89-.89H60a.89.89,0,0,1,.89.89V61Z"/><line class="cls-3" x1="2.91" y1="61" x2="60.91" y2="61"/><path class="cls-4" d="M61.09,23.35A20.35,20.35,0,1,0,30.7,41,14.32,14.32,0,0,1,37.8,53.53v1.34A3.13,3.13,0,0,0,40.58,58,2.94,2.94,0,0,0,43.67,55V53.52A14.41,14.41,0,0,1,50.84,41,20.33,20.33,0,0,0,61.09,23.35ZM42.62,37.71A14.48,14.48,0,1,1,55.09,25.24,14.49,14.49,0,0,1,42.62,37.71Z"/><path class="cls-5" d="M39.58,3A20.49,20.49,0,0,0,20.4,22.57,20.19,20.19,0,0,0,24.08,35a22.38,22.38,0,0,0,33.34,0A20.33,20.33,0,0,0,39.58,3Zm15.5,22.21A14.48,14.48,0,1,1,38.85,9,14.52,14.52,0,0,1,55.09,25.24Z"/><path class="cls-6" d="M23.44,23.32A20.48,20.48,0,0,1,42.59,4.79a20.25,20.25,0,0,1,9.86,2A20.23,20.23,0,0,0,39.61,3a20.33,20.33,0,0,0-7.69,38.64A20.29,20.29,0,0,1,23.44,23.32Z"/><path class="cls-6" d="M44.34,38.73a14.46,14.46,0,0,0,3.93-27.58A14.45,14.45,0,0,1,33.65,35.84,14.42,14.42,0,0,0,44.34,38.73Z"/><path class="cls-7" d="M42.62,37.71A14.48,14.48,0,1,1,55.09,25.24,14.49,14.49,0,0,1,42.62,37.71Z"/><path class="cls-3" d="M42.62,37.71A14.48,14.48,0,1,1,55.09,25.24,14.49,14.49,0,0,1,42.62,37.71Z"/><path class="cls-8" d="M42.06,33.4a10.13,10.13,0,1,1,8.73-8.73A10.14,10.14,0,0,1,42.06,33.4Z"/><path class="cls-3" d="M61.09,23.35A20.35,20.35,0,1,0,30.6,41,14.57,14.57,0,0,1,37.8,53.64v1.22A3.13,3.13,0,0,0,40.58,58,2.94,2.94,0,0,0,43.67,55V53.64a14.68,14.68,0,0,1,7.26-12.7A20.32,20.32,0,0,0,61.09,23.35ZM23.5,21.56,39.61,6"/><path class="cls-9" d="M43.13,53.08a6.63,6.63,0,0,1,2.23.4,2,2,0,0,0-.27-.6L45,52.77a1.91,1.91,0,0,0-.48-.46,7,7,0,0,0-3.78-1.15,6.53,6.53,0,0,0-.88.07,7.36,7.36,0,0,0-.84.18h0L37,52.31l2.12,2.12A7.07,7.07,0,0,1,43.13,53.08Z"/><path class="cls-10" d="M23.51,22.15h-.05a.59.59,0,0,1-.54-.64q0-.55.13-1.1a.59.59,0,0,1,1.16.18c-.05.34-.09.68-.12,1A.59.59,0,0,1,23.51,22.15Z"/><path class="cls-11" d="M24.4,18a.59.59,0,0,1-.55-.78c.11-.31.23-.63.36-.93a17.79,17.79,0,0,1,2.34-4,.59.59,0,0,1,.93.72,16.86,16.86,0,0,0-1.41,2.15,16.53,16.53,0,0,0-.77,1.59c-.12.29-.23.58-.34.87A.59.59,0,0,1,24.4,18Z"/><path class="cls-11" d="M39.61,6a16.77,16.77,0,0,0-10,4.7.59.59,0,1,1-.83-.84l0,0A17.36,17.36,0,0,1,39.61,6Z"/><path class="cls-12" d="M45.42,61V54a2,2,0,0,0-.9-1.65,6.78,6.78,0,0,0-7.56,0,2,2,0,0,0-.9,1.65v7Z"/><path class="cls-13" d="M40.48,56.92V61h4.94V54a2,2,0,0,0-.9-1.65,7,7,0,0,0-3.78-1.15A6.57,6.57,0,0,0,39,51.4L37,52.31l2.76,2.76A2.62,2.62,0,0,1,40.48,56.92Z"/><path class="cls-14" d="M38.45,61V59.46a3.4,3.4,0,0,1,3.06,0,.7.7,0,0,0,.32.07.64.64,0,0,0,.5-.21.41.41,0,0,0-.18-.64,4.66,4.66,0,0,0-3.69-.27V56.67a3.4,3.4,0,0,1,3.06,0,.7.7,0,0,0,.32.07.64.64,0,0,0,.5-.21.41.41,0,0,0-.18-.64,4.66,4.66,0,0,0-3.69-.27V55.4a1,1,0,0,1,.4-.82,7.15,7.15,0,0,1,4.28-1.5,6.63,6.63,0,0,1,2.23.4,2,2,0,0,0-.84-1.17,6.78,6.78,0,0,0-7.56,0,2,2,0,0,0-.9,1.65v7Z"/><path class="cls-12" d="M43.13,53.08a6.63,6.63,0,0,1,2.23.4,2,2,0,0,0-.27-.6L45,52.77a1.91,1.91,0,0,0-.48-.46,7,7,0,0,0-3.78-1.15,6.53,6.53,0,0,0-.88.07,7.36,7.36,0,0,0-.84.18h0L37,52.31l2.12,2.12A7.07,7.07,0,0,1,43.13,53.08Z"/><path class="cls-3" d="M45.42,61V54a2,2,0,0,0-.9-1.65,6.78,6.78,0,0,0-7.56,0,2,2,0,0,0-.9,1.65v7Z"/><rect class="cls-15" x="45.78" y="41.67" width="15.31" height="19.33" rx="2.63" ry="2.63"/><path class="cls-16" d="M48.45,45.56a1.2,1.2,0,0,1,1.2-1.2H61.09V44.3a2.63,2.63,0,0,0-2.63-2.63h-10a2.63,2.63,0,0,0-2.63,2.63V58.37A2.63,2.63,0,0,0,48.41,61h0Z"/><path class="cls-17" d="M58.45,41.67h-10a2.63,2.63,0,0,0-2.63,2.63V48H61.09V44.3A2.63,2.63,0,0,0,58.45,41.67Z"/><path class="cls-18" d="M54.17,46.21h-.35V44.33l-.41-.41h-.72a.41.41,0,0,0,0,.82H53v1.47h-.31a.41.41,0,0,0,0,.82h1.48a.41.41,0,1,0,0-.82Z"/><path class="cls-18" d="M49.23,43.92l-.41.41v2.29l.41.41h1.44l.41-.41V44.33l-.41-.41Zm1,2.29h-.62V44.74h.62Z"/><path class="cls-19" d="M58.45,41.67h-10a2.63,2.63,0,0,0-2.63,2.63V48h2.68V45.56a1.2,1.2,0,0,1,1.2-1.2H61.09V44.3A2.63,2.63,0,0,0,58.45,41.67Z"/><rect class="cls-3" x="45.78" y="41.67" width="15.31" height="19.33" rx="2.63" ry="2.63"/><circle class="cls-20" cx="49.91" cy="51.24" r="0.87"/><circle class="cls-20" cx="53.43" cy="51.24" r="0.87"/><circle class="cls-20" cx="56.96" cy="51.24" r="0.87"/><circle class="cls-21" cx="49.91" cy="50.81" r="0.87"/><circle class="cls-16" cx="53.43" cy="50.81" r="0.87"/><circle class="cls-22" cx="56.96" cy="50.81" r="0.87"/><circle class="cls-20" cx="49.91" cy="54.11" r="0.87"/><circle class="cls-20" cx="53.43" cy="54.11" r="0.87"/><circle class="cls-20" cx="56.96" cy="54.11" r="0.87"/><circle class="cls-16" cx="49.91" cy="53.68" r="0.87"/><circle class="cls-16" cx="53.43" cy="53.68" r="0.87"/><circle class="cls-23" cx="56.96" cy="53.68" r="0.87"/><circle class="cls-20" cx="49.91" cy="56.98" r="0.87"/><circle class="cls-20" cx="53.43" cy="56.98" r="0.87"/><circle class="cls-20" cx="56.96" cy="56.98" r="0.87"/><circle class="cls-16" cx="49.91" cy="56.55" r="0.87"/><circle class="cls-16" cx="53.43" cy="56.55" r="0.87"/><circle class="cls-23" cx="56.96" cy="56.55" r="0.87"/><rect class="cls-23" x="56.09" y="53.68" width="1.74" height="2.87"/><path class="cls-17" d="M51.09,44.33l-.41-.41H49.23l-.41.41v.38a1.19,1.19,0,0,1,.83-.34h1.44Z"/><path class="cls-17" d="M53.82,44.33l-.41-.41h-.72a.41.41,0,0,0-.41.41s0,0,0,0h1.54Z"/><path class="cls-24" d="M35.6,15.78a1,1,0,0,0-1,1V30.17a1,1,0,0,0,1,1H47a.56.56,0,0,0,.56-.56V18l-2.24-2.24Z"/><path class="cls-25" d="M35.6,15.78a1,1,0,0,0-.69.27l.13.17,4.67,4.67a4.73,4.73,0,0,1,1.38,3.34v6.93H47a.56.56,0,0,0,.56-.56V18l-2.24-2.24Z"/><path class="cls-26" d="M46.49,16.9H45.2V27a1.38,1.38,0,0,0,1.38,1.38h.51v-2.1h-.51a1.38,1.38,0,0,0-1.38,1.38v3.56h1.4a1,1,0,0,0,1-1V18Z"/><path class="cls-26" d="M46.56,17v12.6a.56.56,0,0,1-.56.56H34.59v0a1,1,0,0,0,1,1h11a1,1,0,0,0,1-1V18Z"/><path class="cls-27" d="M46.56,17v12.6a.56.56,0,0,1-.56.56H41.1v1h5.5a1,1,0,0,0,1-1V18Z"/><path class="cls-28" d="M35.71,17.38a.48.48,0,0,1,.48-.48h10.3l-1.12-1.12H35.6a1,1,0,0,0-1,1V30.17a1,1,0,0,0,1,1h.11Z"/><path class="cls-24" d="M35.26,15.84h0a1,1,0,0,0-.31.2l.13.17.81.81a.47.47,0,0,1,.34-.14h10.3l-1.12-1.12H35.6l-.2,0Z"/><path class="cls-29" d="M35.29,30.87V16.95a.47.47,0,0,1,.47-.47h10.3l-.69-.69H35.6a1,1,0,0,0-1,1V30.17a1,1,0,0,0,.74,1A1,1,0,0,1,35.29,30.87Z"/><path class="cls-28" d="M35.26,15.84h0a1,1,0,0,0-.31.2l.13.17.38.38a.47.47,0,0,1,.34-.14h10.3l-.69-.69H35.6l-.2,0Z"/><path class="cls-24" d="M34.59,30.13v0a1,1,0,0,0,1,1h.11v-1Z"/><path class="cls-30" d="M46.56,17v12.6a.56.56,0,0,1-.56.56h-.8v1h1.4a1,1,0,0,0,1-1V18Z"/><polygon class="cls-26" points="41.39 30.13 41.65 31.18 42.58 31.18 42.32 30.13 41.39 30.13"/><rect class="cls-26" x="46.56" y="26.24" width="1.05" height="2.1"/><rect class="cls-26" x="46.56" y="26.24" width="1.05" height="2.1"/><path class="cls-30" d="M47.61,19H46.38a1.18,1.18,0,0,1-1.18-1.18V16.64a.17.17,0,0,1,.29-.12l2.24,2.24a.17.17,0,0,1-.12.29Z"/><polygon class="cls-31" points="46.56 17.59 46.56 19.04 47.61 19.04 47.61 18.64 46.56 17.59"/><path class="cls-32" d="M46.38,18h1.23l-2.24-2.24V17A1,1,0,0,0,46.38,18Z"/><path class="cls-33" d="M47.61,18.19H46.38A1.18,1.18,0,0,1,45.2,17V15.78a.17.17,0,0,1,.29-.12l2.24,2.24a.17.17,0,0,1-.12.29Zm-2.07-2V17a.84.84,0,0,0,.84.84h.82Z"/><path class="cls-34" d="M46.38,18.19A1.18,1.18,0,0,1,45.2,17V15.78h-.45V17a1.63,1.63,0,0,0,1.63,1.63h1.23v-.45Z"/><path class="cls-3" d="M35.6,15.78a1,1,0,0,0-1,1V30.17a1,1,0,0,0,1,1h11a1,1,0,0,0,1-1V18l-2.24-2.24Z"/><line class="cls-35" x1="38.66" y1="20.97" x2="43.71" y2="20.97"/><line class="cls-35" x1="38.66" y1="23.66" x2="43.71" y2="23.66"/><line class="cls-35" x1="38.66" y1="26.35" x2="40.73" y2="26.35"/><line class="cls-35" x1="42.46" y1="26.35" x2="42.61" y2="26.35"/><circle class="cls-36" cx="40.68" cy="21.82" r="0.05"/><circle class="cls-36" cx="41.69" cy="21.82" r="0.05"/><path class="cls-37" d="M24.14,29.25v8.55H41.05a1.13,1.13,0,0,0,1.13-1.13V29.25a4.48,4.48,0,0,0-4.48-4.48h-18A4.48,4.48,0,0,1,24.14,29.25Z"/><path class="cls-38" d="M37.7,24.76H36.46a4.48,4.48,0,0,1,4.48,4.48v7.42a1.13,1.13,0,0,1-1.13,1.13h1.24a1.13,1.13,0,0,0,1.13-1.13V29.25A4.48,4.48,0,0,0,37.7,24.76Z"/><path class="cls-39" d="M36.15,37.79V29.25s0-.08,0-.11a2.4,2.4,0,0,1,2.41-2.3h.76a4.46,4.46,0,0,1,2.55.8,4.48,4.48,0,0,0-4.18-2.86H21.4a4.5,4.5,0,0,1,.64,0,4.56,4.56,0,0,0-.92.2,4.46,4.46,0,0,1,1.2.63l0,0a4.5,4.5,0,0,1,.92.93l0,.05a4.49,4.49,0,0,1,.33.54l0,.07a4.46,4.46,0,0,1,.23.54l0,.07a4.45,4.45,0,0,1,.15.6l0,.13a4.49,4.49,0,0,1,.05.64v8.55h12Z"/><path class="cls-40" d="M40.3,26.95a4.47,4.47,0,0,1,1.57.68A4.5,4.5,0,0,0,40.78,26l0,0a4.49,4.49,0,0,0-.48-.39h0a4.47,4.47,0,0,0-.53-.31l-.1,0a4.43,4.43,0,0,0-.54-.22h0a4.46,4.46,0,0,0-.59-.14l-.14,0a4.5,4.5,0,0,0-.62,0H36.46A4.48,4.48,0,0,1,40.3,26.95Z"/><path class="cls-3" d="M24.14,29.25v8.55H41.05a1.13,1.13,0,0,0,1.13-1.13V29.25a4.48,4.48,0,0,0-4.48-4.48h-18A4.48,4.48,0,0,1,24.14,29.25Z"/><path class="cls-41" d="M37.88,24.76h-18a4.48,4.48,0,0,0-4.48,4.48V35h0v5.71a4.48,4.48,0,0,1-4.48,4.48h18a4.48,4.48,0,0,0,4.48-4.48V35h0V29.25A4.48,4.48,0,0,1,37.88,24.76Z"/><path class="cls-42" d="M30,24.76H19.84a4.48,4.48,0,0,0-4.48,4.48V35h0v5.71a4.48,4.48,0,0,1-4.48,4.48h4.05A4.46,4.46,0,0,0,16,42.23V36.52h0V30.8a4.48,4.48,0,0,1,4.48-4.48h8.56a.94.94,0,0,0,.94-.94Z"/><path class="cls-42" d="M33.41,24.76H30.66v.62a.94.94,0,0,0,.94.94h2.89a4.47,4.47,0,0,1,3.39-1.56Z"/><path class="cls-38" d="M37.88,24.76h-3a4.48,4.48,0,0,0-2.66,4.09v5.71h0v5.72a4.48,4.48,0,0,1-4.48,4.48h-15a4.46,4.46,0,0,1-1.82.39h18a4.48,4.48,0,0,0,4.48-4.48V35h0V29.25A4.48,4.48,0,0,1,37.88,24.76Z"/><path class="cls-43" d="M33,26.32h1.5a4.53,4.53,0,0,1,.32-.33l0,0,.31-.27.06,0,.31-.21.09-.05.31-.16.11-.06.3-.12.14,0,.31-.09.15,0,.33-.06.14,0,.48,0h-3A4.5,4.5,0,0,0,33,26.32Z"/><path class="cls-43" d="M14.13,44.77H12.69a4.44,4.44,0,0,1-.85.28h0l-.4.07h-.07l-.47,0h4.05a4.53,4.53,0,0,0,.3-.39Z"/><path class="cls-44" d="M35.61,25.39a4.46,4.46,0,0,1,2.27-.62h-18a4.5,4.5,0,0,0-.79.07.62.62,0,0,0,.61.55,3.86,3.86,0,0,1,.82.09,4.48,4.48,0,0,0-2.06,3.77V35h0v5.71a4.48,4.48,0,0,1-4.16,4.47l.32,0H28.91a4.48,4.48,0,0,0,.71-.06h.07a4.48,4.48,0,0,0,3.7-4.41V35h0v-.62H29.8a2.44,2.44,0,0,1-2.44-2.44V25.39Z"/><path class="cls-40" d="M33.4,34.34H32.19v.23h0v5.72a4.48,4.48,0,0,1-4.48,4.48h-12a4.46,4.46,0,0,1-1.48.37l.32,0H28.91l.37,0,.33,0h.07l.37-.08h0l.34-.11h0l.33-.14,0,0,.31-.16h0a4.5,4.5,0,0,0,1.12-.93l0,0,.16-.21.09-.12.12-.19.1-.16.1-.19.09-.19.08-.18.08-.21.06-.18c0-.08,0-.16.06-.24l0-.17c0-.09,0-.19,0-.28s0-.09,0-.14,0-.29,0-.44V35h0Z"/><path class="cls-40" d="M35.61,25.39a4.45,4.45,0,0,1,1-.45l.08,0,.45-.09.13,0a4.51,4.51,0,0,1,.56,0h-3a4.49,4.49,0,0,0-1,.62Z"/><path class="cls-37" d="M29.68,45.09A4.48,4.48,0,0,1,26,40.68V24.76H21.5a4.46,4.46,0,0,0-2.13.54.59.59,0,0,0,.29.08,3.86,3.86,0,0,1,.82.09,4.48,4.48,0,0,0-2.06,3.77V35h0v5.71a4.48,4.48,0,0,1-4.16,4.47l.32,0H28.91a4.48,4.48,0,0,0,.71-.06Z"/><path class="cls-41" d="M14.25,45.14l.32,0h.35L15,45A4.47,4.47,0,0,1,14.25,45.14Z"/><path class="cls-41" d="M19.38,26.46a4.47,4.47,0,0,1,1.11-.15h6.86V24.76H22.89A4.47,4.47,0,0,0,19.38,26.46Z"/><path class="cls-44" d="M20.47,25.48a4.51,4.51,0,0,0-.43.31l-.1.09-.27.26-.14.16-.13.16a4.47,4.47,0,0,1,1.1-.14H26V24.76H22.89a4.45,4.45,0,0,0-2.42.71Z"/><path class="cls-3" d="M37.88,24.76h-18a4.48,4.48,0,0,0-4.48,4.48V35h0v5.71a4.48,4.48,0,0,1-4.48,4.48h18a4.48,4.48,0,0,0,4.48-4.48V35h0V29.25A4.48,4.48,0,0,1,37.88,24.76Z"/><path class="cls-45" d="M24.3,40.68V12.51a.12.12,0,0,0-.21-.09l-1.4,1.4a.36.36,0,0,1-.51,0l-1.29-1.29a.36.36,0,0,0-.51,0L19.1,13.82a.36.36,0,0,1-.51,0L17.3,12.53a.36.36,0,0,0-.51,0L15.5,13.82a.36.36,0,0,1-.51,0l-1.29-1.29a.36.36,0,0,0-.51,0l-1.29,1.29a.36.36,0,0,1-.51,0l-1.29-1.29a.36.36,0,0,0-.51,0L8.32,13.82a.36.36,0,0,1-.51,0L6.46,12.47a.12.12,0,0,0-.21.09V39.89a5.27,5.27,0,0,0,5.27,5.27H28.78A4.48,4.48,0,0,1,24.3,40.68Z"/><path class="cls-46" d="M16.37,14a.36.36,0,0,0,.51,0l.93-.93-.51-.51a.36.36,0,0,0-.51,0l-.93.93Z"/><path class="cls-46" d="M23.56,14a.36.36,0,0,0,.51,0l.23-.23V12.51a.12.12,0,0,0-.21-.09l-1,1Z"/><path class="cls-46" d="M20,14a.36.36,0,0,0,.51,0L21.4,13l-.51-.51a.36.36,0,0,0-.51,0l-.93.93Z"/><path class="cls-46" d="M7.63,40V13.64L6.46,12.47a.12.12,0,0,0-.21.09V39.89a5.27,5.27,0,0,0,5.27,5.27h.12A5.26,5.26,0,0,1,7.63,40Z"/><path class="cls-46" d="M9.19,14a.36.36,0,0,0,.51,0l.93-.93-.51-.51a.36.36,0,0,0-.51,0l-.93.93Z"/><path class="cls-46" d="M12.78,14a.36.36,0,0,0,.51,0l.93-.93-.51-.51a.36.36,0,0,0-.51,0l-.93.93Z"/><path class="cls-46" d="M6.25,26.63a2.14,2.14,0,0,0,2.14-2.14V13.75l-.07.07a.36.36,0,0,1-.51,0L6.46,12.47a.12.12,0,0,0-.21.09V26.63Z"/><path class="cls-47" d="M7.63,13.64,6.46,12.47a.12.12,0,0,0-.21.09V26.63a2.12,2.12,0,0,0,1.38-.51Z"/><path class="cls-46" d="M8.39,41V30.17A2.14,2.14,0,0,0,6.25,28h0V39.89a5.26,5.26,0,0,0,4,5.11A5.25,5.25,0,0,1,8.39,41Z"/><path class="cls-47" d="M6.3,40.56c0,.11,0,.22,0,.32l0,.19c0,.09,0,.19.07.28l.06.2.09.26.08.2.11.23.1.2.1.17a5.26,5.26,0,0,0,.32.47l.08.1.21.25.08.09.24.24.07.07.28.23,0,0a5.26,5.26,0,0,0,1.92.92,5.31,5.31,0,0,1-1-1.19A5.23,5.23,0,0,1,7.63,40V28.55A2.12,2.12,0,0,0,6.25,28V39.89c0,.17,0,.34,0,.5S6.29,40.5,6.3,40.56Z"/><path class="cls-48" d="M19.44,13.62l1.29,1.29a.36.36,0,0,0,.51,0l1-1-.09-.06-1.29-1.29a.36.36,0,0,0-.51,0l-1,1Z"/><path class="cls-46" d="M23,13.62l1.27,1.27V12.51a.12.12,0,0,0-.21-.09l-1.14,1.14Z"/><path class="cls-46" d="M28,45.16h.79a4.5,4.5,0,0,1-.88-.09Z"/><path class="cls-48" d="M12.26,13.62l1.29,1.29a.36.36,0,0,0,.51,0l1-1L15,13.82l-1.29-1.29a.36.36,0,0,0-.51,0l-1,1Z"/><path class="cls-48" d="M15.85,13.62l1.29,1.29a.36.36,0,0,0,.51,0l1-1-.09-.06L17.3,12.53a.36.36,0,0,0-.51,0l-1,1Z"/><path class="cls-48" d="M8.6,13.56,10,14.91a.36.36,0,0,0,.51,0l1-1-.09-.06-1.29-1.29a.36.36,0,0,0-.51,0l-1,1Z"/><path class="cls-48" d="M24.3,40.68V24.76H19.84a4.48,4.48,0,0,0-4.48,4.48V35h0v5.71a4.48,4.48,0,0,1-4.16,4.47l.32,0H28.78A4.48,4.48,0,0,1,24.3,40.68Z"/><path class="cls-38" d="M17.17,13.82a.36.36,0,0,0,.51,0l.46-.46-.83-.83a.36.36,0,0,0-.51,0l-.46.46Z"/><path class="cls-38" d="M20.76,13.82a.36.36,0,0,0,.51,0l.46-.46-.83-.83a.36.36,0,0,0-.51,0l-.46.46Z"/><path class="cls-38" d="M13.57,13.82a.36.36,0,0,0,.51,0l.46-.46-.83-.83a.36.36,0,0,0-.51,0l-.46.46Z"/><path class="cls-38" d="M24.3,40.68V12.51a.12.12,0,0,0-.21-.09l-1.22,1.22v27a4.48,4.48,0,0,0,4.48,4.48h1.42A4.48,4.48,0,0,1,24.3,40.68Z"/><path class="cls-38" d="M6.39,13.82a.36.36,0,0,0,.51,0l.46-.46-.89-.89a.12.12,0,0,0-.21.09v1.13Z"/><path class="cls-38" d="M10,13.82a.36.36,0,0,0,.51,0l.46-.46-.83-.83a.36.36,0,0,0-.51,0L9.15,13Z"/><path class="cls-49" d="M14.73,29.25V40.68a3.86,3.86,0,0,1-3.86,3.86.61.61,0,0,0-.59.47,5.26,5.26,0,0,0,1.24.15H28.78a4.46,4.46,0,0,1-2.27-.62H14.21A5.1,5.1,0,0,0,16,40.68V29.25a3.86,3.86,0,0,1,3.86-3.86H24.3V24.14H19.84A5.11,5.11,0,0,0,14.73,29.25Z"/><path class="cls-49" d="M15.58,24.09a.89.89,0,1,1,.89-.89.68.68,0,1,0,1.37,0,2.25,2.25,0,0,0-1.58-2.14v-.7a.68.68,0,1,0-1.37,0v.7a2.25,2.25,0,0,0,.68,4.4.89.89,0,1,1-.89.89.68.68,0,1,0-1.37,0,2.25,2.25,0,0,0,1.57,2.14v.7a.68.68,0,0,0,1.37,0v-.7a2.25,2.25,0,0,0-.68-4.4Z"/><rect class="cls-40" x="22.87" y="24.14" width="1.43" height="1.25"/><path class="cls-40" d="M28.22,45.12l-.13,0L27.64,45l-.08,0a4.44,4.44,0,0,1-1-.45H25.08a4.46,4.46,0,0,0,2.27.62h1.42A4.5,4.5,0,0,1,28.22,45.12Z"/><path class="cls-3" d="M24.3,40.68V12.51a.12.12,0,0,0-.21-.09l-1.4,1.4a.36.36,0,0,1-.51,0l-1.29-1.29a.36.36,0,0,0-.51,0L19.1,13.82a.36.36,0,0,1-.51,0L17.3,12.53a.36.36,0,0,0-.51,0L15.5,13.82a.36.36,0,0,1-.51,0l-1.29-1.29a.36.36,0,0,0-.51,0l-1.29,1.29a.36.36,0,0,1-.51,0l-1.29-1.29a.36.36,0,0,0-.51,0L8.32,13.82a.36.36,0,0,1-.51,0L6.46,12.47a.12.12,0,0,0-.21.09V39.89a5.27,5.27,0,0,0,5.27,5.27H28.78A4.48,4.48,0,0,1,24.3,40.68Z"/><line class="cls-3" x1="8.51" y1="14.52" x2="6.46" y2="12.47"/><line class="cls-3" x1="12.09" y1="14.52" x2="10.04" y2="12.47"/><line class="cls-3" x1="15.69" y1="14.52" x2="13.64" y2="12.47"/><line class="cls-3" x1="19.29" y1="14.52" x2="17.24" y2="12.47"/><line class="cls-3" x1="22.46" y1="14.08" x2="20.84" y2="12.47"/><rect class="cls-47" x="9.45" y="32.1" width="11.38" height="0.93" rx="0.36" ry="0.36"/><path class="cls-45" d="M16,32.18s0-.06,0-.08H14.73s0,.06,0,.08V33H16Z"/><rect class="cls-47" x="9.45" y="34.63" width="11.38" height="0.93" rx="0.36" ry="0.36"/><rect class="cls-45" x="14.73" y="34.63" width="1.25" height="0.93"/><rect class="cls-47" x="9.45" y="37.16" width="3.91" height="0.93" rx="0.36" ry="0.36"/><circle class="cls-45" cx="19.75" cy="40.52" r="1.07"/><path class="cls-47" d="M15.13,23.87A.89.89,0,1,1,16,23a.68.68,0,0,0,1.37,0,2.25,2.25,0,0,0-1.58-2.14v-.7a.68.68,0,1,0-1.37,0v.7a2.25,2.25,0,0,0,.68,4.4.89.89,0,1,1-.89.89.68.68,0,0,0-1.37,0,2.25,2.25,0,0,0,1.57,2.14V29a.68.68,0,1,0,1.37,0v-.7a2.25,2.25,0,0,0-.68-4.4Z"/><rect class="cls-50" x="15.96" y="57.22" width="10.8" height="3.78" rx="0.66" ry="0.66" transform="translate(42.71 118.22) rotate(180)"/><path class="cls-23" d="M16.61,57.22h.59v2.1a.41.41,0,0,0,.41.41h6.14a.43.43,0,0,1,.43.43V61H16.61a.66.66,0,0,1-.66-.66V57.87A.66.66,0,0,1,16.61,57.22Z"/><polygon class="cls-51" points="20.73 61 21.16 61 19.84 57.22 19.41 57.22 20.73 61"/><polygon class="cls-51" points="21.83 61 23.27 61 21.95 57.22 20.51 57.22 21.83 61"/><path class="cls-51" d="M25.4,58.78a.4.4,0,0,0-.4-.4H16v-.51a.66.66,0,0,1,.66-.66h9.48a.66.66,0,0,1,.66.66v2.47a.66.66,0,0,1-.66.66h-.7Z"/><polygon class="cls-52" points="20.72 59.73 21.16 61 20.73 61 20.29 59.73 20.72 59.73"/><polygon class="cls-52" points="22.83 59.73 23.27 61 21.83 61 21.39 59.73 22.83 59.73"/><polygon class="cls-51" points="24.91 61 25.34 61 24.02 57.22 23.6 57.22 24.91 61"/><path class="cls-50" d="M16.61,57.22h.59v1.16H16v-.51A.66.66,0,0,1,16.61,57.22Z"/><rect class="cls-3" x="15.96" y="57.22" width="10.8" height="3.78" rx="0.66" ry="0.66" transform="translate(42.71 118.22) rotate(180)"/><rect class="cls-50" x="14.02" y="53.34" width="10.79" height="3.78" rx="0.66" ry="0.66" transform="translate(38.83 110.46) rotate(180)"/><path class="cls-23" d="M14.67,53.34h.59v2.1a.41.41,0,0,0,.41.41h6.14a.43.43,0,0,1,.43.43v.84H14.67a.66.66,0,0,1-.66-.66V54A.66.66,0,0,1,14.67,53.34Z"/><polygon class="cls-51" points="18.79 57.12 19.22 57.12 17.9 53.34 17.47 53.34 18.79 57.12"/><polygon class="cls-51" points="19.89 57.12 21.33 57.12 20.01 53.34 18.57 53.34 19.89 57.12"/><path class="cls-51" d="M23.46,54.9a.4.4,0,0,0-.4-.4H14V54a.66.66,0,0,1,.66-.66h9.48a.66.66,0,0,1,.66.66v2.47a.66.66,0,0,1-.66.66h-.7Z"/><polygon class="cls-52" points="18.78 55.85 19.22 57.12 18.79 57.12 18.35 55.85 18.78 55.85"/><polygon class="cls-52" points="20.89 55.85 21.33 57.12 19.89 57.12 19.45 55.85 20.89 55.85"/><polygon class="cls-51" points="22.98 57.12 23.4 57.12 22.08 53.34 21.66 53.34 22.98 57.12"/><path class="cls-50" d="M14.67,53.34h.59V54.5H14V54A.66.66,0,0,1,14.67,53.34Z"/><rect class="cls-3" x="14.02" y="53.34" width="10.79" height="3.78" rx="0.66" ry="0.66" transform="translate(38.83 110.46) rotate(180)"/><rect class="cls-50" x="15.57" y="49.53" width="10.79" height="3.78" rx="0.66" ry="0.66" transform="translate(41.93 102.84) rotate(180)"/><path class="cls-23" d="M16.22,49.53h.59v2.1a.41.41,0,0,0,.41.41h6.14a.43.43,0,0,1,.43.43v.84H16.22a.66.66,0,0,1-.66-.66V50.19A.66.66,0,0,1,16.22,49.53Z"/><polygon class="cls-51" points="20.34 53.31 20.77 53.31 19.45 49.53 19.02 49.53 20.34 53.31"/><polygon class="cls-51" points="21.44 53.31 22.89 53.31 21.57 49.53 20.12 49.53 21.44 53.31"/><path class="cls-51" d="M25,51.09a.4.4,0,0,0-.4-.4h-9v-.51a.66.66,0,0,1,.66-.66h9.48a.66.66,0,0,1,.66.66v2.47a.66.66,0,0,1-.66.66H25Z"/><polygon class="cls-52" points="20.33 52.04 20.77 53.31 20.34 53.31 19.9 52.04 20.33 52.04"/><polygon class="cls-52" points="22.44 52.04 22.89 53.31 21.44 53.31 21 52.04 22.44 52.04"/><polygon class="cls-51" points="24.53 53.31 24.96 53.31 23.64 49.53 23.21 49.53 24.53 53.31"/><path class="cls-50" d="M16.22,49.53h.59v1.16H15.57v-.51A.66.66,0,0,1,16.22,49.53Z"/><rect class="cls-3" x="15.57" y="49.53" width="10.79" height="3.78" rx="0.66" ry="0.66" transform="translate(41.93 102.84) rotate(180)"/></svg>